<?xml version="1.0" encoding="UTF-8" standalone="no"?>
<!-- Created with Inkscape (http://www.inkscape.org/) -->

<svg
   version="1.1"
   id="svg18"
   width="20mm"
   height="20mm"
   viewBox="0 0 75.590552 75.590549"
   sodipodi:docname="Gaslands_Skid_Dice_Labels.svg"
   inkscape:version="1.2.2 (b0a8486541, 2022-12-01)"
   inkscape:dataloss="true"
   xmlns:inkscape="http://www.inkscape.org/namespaces/inkscape"
   xmlns:sodipodi="http://sodipodi.sourceforge.net/DTD/sodipodi-0.dtd"
   xmlns="http://www.w3.org/2000/svg"
   xmlns:svg="http://www.w3.org/2000/svg">
  <defs
     id="defs22" />
  <sodipodi:namedview
     id="namedview20"
     pagecolor="#ffffff"
     bordercolor="#666666"
     borderopacity="1.0"
     inkscape:showpageshadow="2"
     inkscape:pageopacity="0.0"
     inkscape:pagecheckerboard="true"
     inkscape:deskcolor="#d1d1d1"
     showgrid="false"
     inkscape:zoom="2.9388713"
     inkscape:cx="180.00108"
     inkscape:cy="42.363202"
     inkscape:window-width="1920"
     inkscape:window-height="1008"
     inkscape:window-x="1920"
     inkscape:window-y="0"
     inkscape:window-maximized="1"
     inkscape:current-layer="g26"
     inkscape:document-units="mm" />
  <g
     id="g26"
     inkscape:groupmode="layer"
     inkscape:label="Page 1"
     transform="matrix(1.3333333,0,0,-1.3333333,0,1122.88)">
    <path
       d="m 9.7923034,797.44203 c -0.8439,2.57461 -0.97052,3.28445 -0.6539,3.66595 0.67783,0.81674 4.9104806,2.72831 7.2471106,3.27299 1.57111,0.36623 3.24333,0.48598 5.6,0.40099 3.05891,-0.11027 3.60372,-0.22964 6.08,-1.33191 1.496,-0.66592 3.49853,-1.48853 4.45009,-1.82804 3.53767,-1.2622 8.37882,-0.52424 11.8167,1.80127 0.93873,0.635 1.75349,1.1066 1.81057,1.048 0.1292,-0.13254 1.76264,-5.75435 1.76264,-6.06623 0,-0.50386 -3.96287,-2.82902 -5.94689,-3.48926 -1.74514,-0.58074 -2.63191,-0.68058 -5.0452,-0.568 -2.61972,0.12226 -3.28159,0.29109 -6.28791,1.60444 -4.23223,1.8489 -5.41199,2.1685 -8.01277,2.17072 -2.79511,0.003 -5.34335,-0.68328 -8.62723,-2.32139 -1.496,-0.74625 -2.816,-1.40083 -2.93335,-1.4546 -0.11733,-0.0537 -0.684261,1.339 -1.2598606,3.09507 z m 0.5130796,10.7262 c -1.6136996,0.70328 -1.9101796,1.28333 -1.2377396,2.42166 0.67992,1.15102 1.1097396,1.20703 2.3314306,0.3038 1.01216,-0.74833 1.86845,-0.71794 2.37357,0.0843 0.46472,0.73799 -0.19146,1.45869 -1.6973,1.86417 -1.944441,0.52358 -2.8898306,1.62671 -2.8898306,3.37198 0,1.2003 0.17227,1.65217 0.9118496,2.39174 1.410261,1.41027 4.394561,1.66912 5.969151,0.51776 0.52743,-0.38566 0.54644,-0.54345 0.17392,-1.44278 -0.54704,-1.3207 -0.71635,-1.39599 -1.85812,-0.8264 -1.12139,0.55941 -1.9968,0.33365 -1.9968,-0.51495 0,-0.44641 0.43361,-0.72288 1.72057,-1.09701 2.11227,-0.61406 2.79376,-1.32531 2.9748,-3.10471 0.33303,-3.27319 -3.38081,-5.44897 -6.775501,-3.96949 z m 7.361331,0.2772 c -0.076,0.21961 -0.10733,2.77529 -0.0697,5.67929 l 0.0685,5.28 h 1.6 1.6 l 0.0891,-4.21203 0.0891,-4.21204 1.903,-0.108 1.90302,-0.108 0.0879,4.32 0.0879,4.32 1.68,0.0967 1.68,0.0967 v -5.75126 -5.75126 l -5.29032,-0.0248 c -3.9584,-0.0185 -5.32509,0.0757 -5.42848,0.37454 z m 11.61864,1.56493 c -0.0663,1.11889 -0.11587,3.69036 -0.11013,5.71436 l 0.0107,3.68 h 3.38479 c 3.17645,0 3.46853,-0.0555 4.7452,-0.9012 1.63595,-1.08376 2.27001,-2.44249 2.27001,-4.86441 0,-2.14219 -0.56188,-3.33816 -2.13036,-4.5345 -1.08277,-0.82586 -1.43029,-0.90206 -4.61018,-1.0109 l -3.43915,-0.11774 -0.1204,2.03438 z m 6.12768,1.61471 c 0.70519,0.75692 0.88739,2.74278 0.34471,3.7568 -0.37819,0.70664 -2.06588,1.44284 -2.72648,1.18934 -0.38182,-0.14652 -0.48575,-0.77058 -0.48575,-2.91645 v -2.73004 h 1.10752 c 0.72727,0 1.33157,0.24047 1.76,0.70035 z m 4.81248,2.16917 v 5.77048 h 3.46665 c 1.90668,0 3.53119,-0.0645 3.61006,-0.14338 0.0788,-0.0788 0.0877,-0.72685 0.0197,-1.44 l -0.1236,-1.29662 h -1.8864 c -1.78856,0 -1.88639,-0.0407 -1.88639,-0.78403 0,-0.73001 0.1268,-0.79064 1.84,-0.88 l 1.84,-0.096 0.0993,-1.2 c 0.10773,-1.30181 0.16718,-1.2657 -2.17932,-1.32413 -1.23666,-0.0308 -1.45443,-0.13753 -1.54226,-0.75587 -0.0964,-0.6786 0.009,-0.72 1.83391,-0.72 1.78149,0 1.95169,-0.0619 2.13059,-0.77469 0.46066,-1.83543 0.2788,-1.93753 -3.62607,-2.03579 l -3.59617,-0.0905 z M 9.8330834,825.5118 c -0.53217,1.66132 -0.96757,3.20442 -0.96757,3.42913 0,0.46496 2.7262406,2.17887 4.6400006,2.91701 2.15153,0.82988 5.33639,1.45707 7.42424,1.46204 2.81195,0.007 4.92763,-0.5156 8.41576,-2.0776 1.672,-0.74873 3.87756,-1.5347 4.90127,-1.7466 3.24018,-0.67069 7.22521,0.26524 10.18586,2.39226 0.88856,0.63836 1.65584,1.11476 1.70508,1.05866 0.0492,-0.0561 0.47983,-1.46921 0.95687,-3.14029 l 0.86735,-3.03829 -1.06822,-0.89462 c -1.70126,-1.42478 -4.53961,-2.69338 -7.01653,-3.13602 -3.06291,-0.54738 -5.32935,-0.13708 -9.66056,1.74886 -4.14151,1.80334 -6.13195,2.2579 -8.72404,1.99234 -2.82208,-0.28914 -5.04123,-1.00442 -8.05951,-2.59779 l -2.632421,-1.38968 z"
       style="fill:#000000;stroke-width:0.24"
       id="path1533" />
  </g>
</svg>
